<svg width="87" height="55" viewBox="0 0 87 55" fill="none" xmlns="http://www.w3.org/2000/svg">
<path d="M27.6585 50.318L26.8081 48.9981L26.0539 47.863C25.9539 47.7129 25.8115 47.6321 25.6306 47.6282L22.6253 47.5243C22.5445 47.5243 22.4676 47.5397 22.3945 47.5705L19.7855 48.7211C19.7124 48.7518 19.647 48.8019 19.5931 48.8634L18.6273 50.0063C18.5772 50.064 18.5618 50.1333 18.5811 50.2064C18.5965 50.2833 18.6427 50.3372 18.7119 50.368L20.0125 50.926L20.5974 49.7523C20.6629 49.6253 20.7552 49.533 20.8822 49.4676L22.4137 48.7018C22.456 48.6787 22.4945 48.6864 22.5214 48.7211C22.5522 48.7595 22.5561 48.7942 22.5291 48.8326L22.0212 49.5599C21.9673 49.6369 21.9327 49.7254 21.9135 49.8216L21.7134 51.0376L24.7725 50.8105L27.5161 50.6066C27.5854 50.6027 27.6354 50.5681 27.6662 50.5027C27.7008 50.4411 27.697 50.3795 27.6585 50.318ZM66.6619 48.6018C66.6388 48.5248 66.5887 48.4709 66.5156 48.4363L65.3228 47.9207L64.7148 47.5243C64.5916 47.4474 64.4685 47.4435 64.3377 47.5089L62.7908 48.3093C62.7061 48.3517 62.6407 48.4132 62.5907 48.4979L62.3136 48.9943C62.2674 49.0751 62.2597 49.1559 62.2828 49.2444C62.3059 49.3329 62.3598 49.3983 62.4368 49.4406L63.0601 49.7908L63.8836 49.8832C64.0144 49.8985 64.1106 49.8485 64.1799 49.7369L64.4185 49.3367L66.6234 49.3868C66.6926 49.3906 66.7504 49.3637 66.7927 49.306C66.835 49.2482 66.8466 49.1867 66.8235 49.1174L66.6619 48.6018ZM86.9562 54.3738C83.2352 50.5373 78.4675 47.2242 72.9495 44.6191C73.1996 44.5768 73.4536 44.5652 73.7075 44.5729C78.0519 40.4709 80.3684 34.3411 80.3723 29.2155C80.3723 29.1732 80.3915 29.1424 80.4262 29.127C80.4646 29.1078 80.4993 29.1116 80.5301 29.1386C81.3189 29.7312 81.6691 30.7432 81.6498 31.863C81.6498 31.8861 81.6614 31.9053 81.6844 31.913C81.7075 31.9207 81.7229 31.9168 81.7383 31.8976C81.8807 31.7244 82 31.5397 82.0962 31.3396C82.1039 31.3165 82.1231 31.305 82.1501 31.3089C82.1731 31.3127 82.1885 31.3281 82.1924 31.355C82.2963 32.0515 81.9269 32.5325 81.8999 33.4253C81.873 34.3411 82.6388 35.4339 82.3771 36.5883C82.3694 36.6229 82.3809 36.6499 82.4079 36.6691C82.4348 36.6922 82.4656 36.6922 82.4964 36.6768C85.3439 35.0068 84.6282 32.013 83.9009 30.7124C83.8855 30.6893 83.8894 30.6701 83.9047 30.6508C83.9201 30.6316 83.9394 30.6278 83.9625 30.6355C84.5358 30.8432 85.063 31.1395 85.5401 31.5243C85.5632 31.5436 85.5863 31.5436 85.6094 31.5282C85.6287 31.5089 85.6363 31.4859 85.621 31.4628C84.8321 29.8274 82.9351 28.9077 81.5151 28.369C81.4728 28.3536 81.4536 28.3228 81.4536 28.2766C81.4574 28.2305 81.4805 28.2035 81.5228 28.192C82.1578 28.0188 83.6546 27.5032 84.5935 26.2757C85.7595 24.7557 85.7556 22.2891 84.8283 21.0154C84.809 20.9885 84.7821 20.9808 84.7513 20.9885C84.7167 20.9962 84.7013 21.0193 84.6974 21.0501C84.6089 22.3084 83.6623 23.6937 82.9158 24.8904C82.9043 24.9058 82.8927 24.9135 82.8735 24.9096C82.8542 24.9096 82.8427 24.8981 82.8389 24.8827C82.7965 24.7211 82.7003 24.3901 82.5926 24.1169C82.5849 24.0977 82.5733 24.09 82.5503 24.0939C82.5272 24.0939 82.5156 24.1092 82.5156 24.1285C82.4502 24.9866 82.0962 26.4912 81.215 27.1376C81.1727 27.1684 81.1342 27.1684 81.0919 27.1376C81.0534 27.1068 81.0457 27.0645 81.0649 27.0183C81.8692 25.0905 81.6306 22.0967 81.215 20.7422C81.2035 20.7115 81.1842 20.6999 81.1534 20.7076C81.1226 20.7115 81.1073 20.7307 81.1073 20.7615C81.1573 21.9774 80.9995 24.6634 80.3069 25.8331C80.2915 25.8562 80.2722 25.8639 80.2453 25.8562C80.2184 25.8485 80.2068 25.8293 80.2068 25.8024C80.2722 21.3887 77.9173 19.28 76.1433 19.0068C76.1164 19.0029 76.101 19.0145 76.0895 19.0376C76.0779 19.0568 76.0779 19.0799 76.0972 19.0953C76.8514 19.8918 76.6128 21.1694 77.1438 22.0621C77.163 22.0929 77.1554 22.116 77.1246 22.1352C76.8783 22.2737 76.6205 22.393 76.355 22.4931C76.3319 22.5008 76.3203 22.5162 76.3203 22.5393C76.3203 22.5623 76.328 22.5816 76.3511 22.5893C77.1284 23.0203 77.7749 23.5975 78.2944 24.317C78.8177 25.0366 79.1602 25.8331 79.3218 26.7066C79.3295 26.7528 79.3141 26.7875 79.2718 26.8105C79.2294 26.8298 79.1909 26.8221 79.1602 26.7913C78.5676 26.1564 77.2208 25.2636 76.2434 25.1751C76.2126 25.1713 76.1934 25.1828 76.1857 25.2098C76.1741 25.2406 76.1818 25.2598 76.2087 25.2752C77.0899 25.7293 78.4906 26.9875 79.0832 28.1727C79.0986 28.2074 79.0986 28.2381 79.0794 28.2651C79.0601 28.2959 79.0332 28.3074 78.9947 28.3074C78.1674 28.2651 76.1972 28.4498 75.2968 28.7884C75.266 28.8 75.2544 28.823 75.2544 28.8538C75.2583 28.8885 75.2775 28.9077 75.3122 28.9115C75.4738 28.9385 75.6354 28.9731 75.7932 29.0231C75.8239 29.0347 75.8355 29.0539 75.8393 29.0809C75.8393 29.1116 75.8278 29.1309 75.8009 29.1424C75.1621 29.4041 73.6652 30.2391 73.3074 31.8899C73.2958 31.9284 73.3112 31.9476 73.3535 31.9476C74.7388 31.8591 75.9702 31.5205 76.9052 30.9779C76.9206 30.9664 76.9399 30.9664 76.9553 30.9818C76.9706 30.9972 76.9745 31.0126 76.963 31.0318C76.6897 31.5782 76.532 32.1554 76.4896 32.7634C76.4896 32.7865 76.5012 32.798 76.5243 32.8057C76.5435 32.8096 76.5628 32.8019 76.5705 32.7826C77.0091 31.8052 78.1943 30.2622 79.3218 29.6658C79.3564 29.6504 79.3872 29.6504 79.418 29.6696C79.4488 29.6927 79.4642 29.7196 79.4642 29.7543C79.3526 35.1299 76.151 40.7903 71.291 43.8726C70.1635 43.3839 69.013 42.9221 67.8316 42.4911C68.2357 42.4026 68.6436 42.3565 69.0553 42.3642C73.9731 32.9981 72.3069 19.3416 66.5695 13.0385C66.5079 12.9731 66.5002 12.9 66.5503 12.8231C66.6003 12.7499 66.6695 12.723 66.7542 12.7538C68.2857 13.2771 69.5863 14.1506 70.6522 15.3743C70.6753 15.4051 70.7023 15.4128 70.7369 15.3935C70.7715 15.3781 70.7831 15.3512 70.7715 15.3127C70.5445 14.5162 70.152 13.6504 69.5632 13.1155C69.5402 13.0924 69.5325 13.0655 69.5479 13.0347C69.5632 13.0001 69.5902 12.9885 69.6248 12.9962C70.3328 13.1463 71.1794 13.4965 72.3569 14.0236C73.5921 14.5777 75.5315 13.7889 76.4627 13.9197C76.4973 13.9236 76.5204 13.912 76.5358 13.8813C76.5512 13.8543 76.5474 13.8274 76.5281 13.8043C74.1731 11.026 69.6479 10.6182 67.189 11.0376C67.1082 11.053 67.0467 11.0222 67.0043 10.9491C66.9659 10.876 66.9735 10.8067 67.0274 10.7451C67.9432 9.81007 69.0515 9.26365 70.3482 9.10204C70.3829 9.09819 70.406 9.07895 70.4137 9.04432C70.4213 9.00969 70.4137 8.9866 70.3829 8.96736C69.9673 8.698 69.1746 8.43249 68.582 8.54023C68.5474 8.54408 68.5243 8.53253 68.5089 8.50175C68.4935 8.47481 68.4935 8.44788 68.5166 8.42094C69.19 7.68982 69.798 6.91253 70.3482 6.08521C71.391 4.53061 70.9447 1.26366 71.1756 0.136196C71.1833 0.105412 71.1717 0.0784767 71.1448 0.0592359C71.1178 0.0438449 71.0909 0.0438449 71.064 0.0592359C69.8749 0.85962 67.7739 3.12609 66.8735 5.33485C66.862 5.35793 66.8427 5.36948 66.8158 5.36563C66.7888 5.36178 66.7734 5.34254 66.7734 5.31561C66.7157 4.44211 66.2886 3.13379 65.9923 2.50656C65.9769 2.48348 65.9577 2.47578 65.9307 2.47963C65.9076 2.48732 65.8923 2.50657 65.8923 2.5335C65.9577 3.40315 66.1539 6.35457 65.9269 8.22469C65.923 8.25163 65.9076 8.26318 65.8846 8.26702C65.8576 8.27087 65.8422 8.26318 65.8307 8.24009C65.7268 8.00536 65.5767 7.80141 65.3843 7.62825C65.3651 7.61671 65.3458 7.61286 65.3266 7.62441C65.3035 7.63595 65.2958 7.65519 65.2997 7.67828C65.4036 8.35168 65.4113 9.02508 65.3228 9.70233C65.3074 9.80238 65.2496 9.8524 65.1496 9.85625C65.0495 9.85625 64.988 9.80622 64.9726 9.71002C64.5108 7.13186 62.8947 3.888 61.4594 2.69896C61.4517 2.69512 61.444 2.69512 61.4401 2.69896C61.4324 2.70666 61.4286 2.71051 61.4324 2.7182C61.925 3.75332 62.2559 4.83461 62.4291 5.96592C62.4329 5.97746 62.4291 5.98901 62.4137 5.98901C62.4021 5.99285 62.3944 5.98901 62.3906 5.97746C60.7167 2.0448 57.4882 -0.0600516 54.4868 0.0399959C54.4714 0.0361482 54.4637 0.0438447 54.4637 0.0553879C54.4598 0.0707799 54.4637 0.0784759 54.4791 0.0784759C55.2371 0.501756 55.9644 2.81825 57.2381 3.65712C57.242 3.66096 57.2458 3.66481 57.2458 3.67251C57.2458 3.67636 57.242 3.6802 57.2343 3.6802C56.9457 3.74947 56.6878 3.8803 56.4647 4.0804C56.4493 4.09194 56.4531 4.10348 56.4724 4.10733C58.6811 4.68069 61.5633 6.83557 63.5604 10.014C63.6181 10.1025 63.6065 10.1795 63.5257 10.2449C63.4488 10.3142 63.368 10.3142 63.291 10.2449C60.5897 7.8322 57.1458 6.56621 55.4834 7.03181C55.4642 7.03566 55.4526 7.05105 55.4526 7.07029C55.4526 7.08953 55.4642 7.10108 55.4834 7.10493C56.8379 7.39353 58.0616 7.97073 59.1467 8.83653C59.1621 8.84807 59.1621 8.86346 59.1544 8.87885C59.1467 8.89809 59.1352 8.90579 59.1159 8.90194C54.9639 8.34013 51.3968 12.3305 51.1313 14.5547C51.1313 14.5739 51.139 14.5893 51.1544 14.5931C51.1737 14.6008 51.1852 14.597 51.1967 14.5816C51.8778 13.635 53.9096 13.8274 55.0601 13.3156C55.0717 13.3079 55.0832 13.3079 55.0948 13.3156C55.1025 13.3233 55.1063 13.3348 55.1063 13.3464C55.0678 13.7543 55.1486 14.1391 55.3526 14.4969C55.3603 14.5123 55.3757 14.5162 55.3911 14.5162C55.4103 14.5123 55.4218 14.5046 55.4257 14.4892C56.6417 11.4609 58.9928 11.2877 60.7205 11.407C60.7436 11.407 60.759 11.4185 60.7629 11.4416C60.7706 11.4647 60.7629 11.4801 60.7398 11.4916C60.0933 11.8572 59.4584 12.8577 59.2429 13.4772C59.2352 13.5003 59.2429 13.5195 59.2622 13.5349C59.2814 13.5465 59.3006 13.5465 59.3199 13.5311C60.3088 12.6153 62.102 12.1843 63.3641 12.369C63.4565 12.3844 63.5065 12.4383 63.5142 12.5345C63.5219 12.6268 63.4834 12.6884 63.3911 12.7192C62.1251 13.154 60.6975 14.2237 60.3434 14.9356C60.3357 14.951 60.3396 14.9702 60.3511 14.9818C60.3665 14.9972 60.3819 14.9972 60.4012 14.9895C60.8014 14.7548 61.2323 14.6162 61.6941 14.5662C61.7172 14.5662 61.7326 14.5739 61.7403 14.5931C61.748 14.6162 61.7403 14.6316 61.7249 14.6432C59.7893 16.2055 59.8163 19.584 60.1857 20.6499C60.1972 20.673 60.2126 20.6845 60.2357 20.6884C60.2626 20.6884 60.278 20.6768 60.2896 20.6576C60.3319 20.5652 60.3858 20.4844 60.4473 20.4075C60.4627 20.3882 60.482 20.3805 60.5051 20.3844C60.5281 20.3882 60.5435 20.3998 60.5474 20.4229C60.9091 21.4002 61.571 22.0929 62.533 22.4969C62.5522 22.5046 62.5714 22.5008 62.5907 22.4854C62.6061 22.4661 62.6099 22.4469 62.6022 22.4277C62.3559 21.735 62.1674 20.3959 62.3059 19.7956C62.3213 19.7302 62.3521 19.7225 62.4021 19.7649C62.5214 19.8726 62.6561 19.9496 62.8062 19.9996C62.8293 20.0034 62.8446 19.9996 62.86 19.9842C62.8754 19.9688 62.8793 19.9496 62.8716 19.9303C62.6753 19.2992 62.5907 17.4907 63.0024 16.5248C63.0101 16.5056 63.0255 16.494 63.0486 16.4979C63.0678 16.5017 63.0794 16.5133 63.0832 16.5325C63.2217 17.6292 64.2569 19.2954 65.1034 19.684C65.1227 19.6917 65.138 19.6879 65.1496 19.6725C65.165 19.6571 65.165 19.6417 65.1534 19.6225C64.0991 17.914 64.1568 14.3469 64.961 13.3041C64.9957 13.2579 65.038 13.2348 65.0957 13.2348C65.1496 13.2309 65.1958 13.2502 65.2342 13.2925C72.8264 22.1352 72.0875 35.9842 65.1842 41.5984C62.6138 40.7865 60.0048 40.1285 57.3535 39.6244C57.3382 39.6205 57.3266 39.609 57.3305 39.5897C57.3305 39.5705 57.342 39.559 57.3612 39.5628C58.3232 39.6051 59.2583 39.6821 60.0664 39.8052C60.0779 38.9125 60.2011 37.1847 60.2588 36.4613C60.2588 36.4421 60.2665 36.4344 60.2857 36.4344C60.3011 36.4344 60.3127 36.4421 60.3127 36.4613C60.5128 38.6124 60.6013 39.6436 60.6205 39.8976C61.0168 39.9669 61.4016 40.0784 61.7787 40.2247V33.3791C61.7787 32.3055 56.861 28.4075 54.279 27.6725C54.2636 27.6686 54.2559 27.6571 54.2559 27.6379C54.2598 27.6186 54.2674 27.6109 54.2867 27.6109C55.1525 27.5647 56.4223 28.2112 56.8187 28.4305C56.8495 28.4459 56.8764 28.4459 56.9033 28.4305C56.9341 28.4152 56.9495 28.3882 56.9495 28.3574C56.9995 27.3377 57.0688 25.0366 52.963 23.0049C52.9399 22.9972 52.9322 22.9779 52.9399 22.9548C52.9476 22.9279 52.963 22.9202 52.9899 22.9279C54.0135 23.1088 55.5604 24.1708 55.9952 24.4787C56.0106 24.494 56.026 24.4902 56.0414 24.4787C56.0606 24.4671 56.0645 24.4517 56.0529 24.4325C55.9606 24.217 55.7682 23.7822 55.6258 23.4782C55.6142 23.4589 55.6181 23.4435 55.6373 23.4281C55.6527 23.4166 55.6681 23.4166 55.6874 23.4281C56.6186 24.2131 58.354 26.3873 58.204 28.5614C58.2001 28.5999 58.2155 28.6268 58.2463 28.6499C58.2771 28.6691 58.3117 28.6691 58.3425 28.6499C58.785 28.3651 58.9736 27.5801 59.0351 27.2685C59.039 27.2492 59.0505 27.2415 59.0698 27.2415C59.0851 27.2415 59.0967 27.2492 59.1005 27.2646C59.1775 27.5609 59.216 27.861 59.2121 28.1689C59.2121 28.1843 59.2237 28.1958 59.2391 28.2035C59.2583 28.2074 59.2737 28.1997 59.2814 28.1843C59.4622 27.7456 59.5738 27.2915 59.6123 26.8182C59.6123 26.799 59.6239 26.7875 59.6431 26.7875C59.6585 26.7836 59.67 26.7913 59.6777 26.8067C60.0741 27.8803 60.2011 28.9808 60.0548 30.116C60.051 30.1314 60.0587 30.1468 60.0702 30.1545C60.0856 30.1621 60.0972 30.1621 60.1126 30.1545C60.3319 29.9697 60.5128 29.7543 60.659 29.5041C60.6705 29.4887 60.6859 29.4811 60.7052 29.4849C60.7244 29.4926 60.7359 29.5041 60.7359 29.5234C60.8321 29.9505 60.8206 30.3776 60.7013 30.8048C60.6936 30.8202 60.7013 30.8355 60.7128 30.8471C60.7244 30.8586 60.7398 30.8625 60.7552 30.8548C61.2977 30.6316 61.7518 29.4541 61.6171 28.3497C61.6133 28.3267 61.6248 28.3113 61.6441 28.3036C61.6672 28.292 61.6864 28.2997 61.6979 28.319C62.2674 29.2078 62.6638 30.7663 62.1558 32.0015C62.1482 32.0207 62.1482 32.04 62.1635 32.0554C62.1751 32.0708 62.1905 32.0785 62.2136 32.0746C62.4791 32.0169 62.7061 31.8899 62.8947 31.6975C62.9139 31.6821 62.9331 31.6783 62.9524 31.6898C62.9755 31.6975 62.9832 31.7167 62.9793 31.7398C62.9062 32.1785 62.733 32.5748 62.456 32.9289C62.4445 32.9443 62.4406 32.9596 62.4483 32.9789C62.456 32.9981 62.4714 33.0097 62.4906 33.0097C63.3064 33.0481 64.3069 32.3132 64.3069 30.5431C64.3069 24.6056 50.6734 16.8519 43.3122 16.8519C36.8168 16.8519 22.6946 24.6403 22.6946 30.2391C22.6946 32.3363 23.3834 33.1174 24.0375 33.1174C24.0991 33.1213 24.1145 33.0943 24.0914 33.0405C23.9106 32.5402 23.8221 32.0207 23.8259 31.4897C23.8259 31.4666 23.8375 31.4512 23.8605 31.4474C23.8836 31.4397 23.899 31.4474 23.9106 31.4666C24.0068 31.6398 24.1222 31.7975 24.2569 31.9438C23.9991 31.0818 23.8298 29.6465 24.5724 28.596C24.5994 28.5729 24.6263 28.5691 24.6571 28.5845C24.6917 28.5999 24.7033 28.6229 24.7033 28.6614C24.6109 29.5195 25.0457 30.4507 25.6768 30.7663C26.2425 30.2776 27.1891 29.5965 27.1891 29.5965C26.8774 28.9077 27.0082 27.7456 27.1737 27.3454C27.1814 27.3262 27.1968 27.3185 27.216 27.3223C27.2352 27.3223 27.2468 27.3339 27.2506 27.3531C27.4161 28.0534 27.8278 28.5498 28.4858 28.8384C28.5051 28.8461 28.5205 28.8461 28.5359 28.8307C28.5513 28.8153 28.5551 28.7961 28.5436 28.7769C28.3088 28.1612 28.2396 27.5224 28.3396 26.8683C28.4397 26.2141 28.6936 25.6254 29.1015 25.1059C31.6835 21.7158 37.9981 19.0645 40.6109 18.191C40.6455 18.1795 40.6686 18.1872 40.6802 18.2218C40.6955 18.2526 40.684 18.2757 40.6532 18.2872C36.3935 20.6114 32.6763 22.8394 30.9832 24.8327C29.8942 26.1102 29.9173 27.3146 30.279 28.3113C30.2867 28.3305 30.2982 28.3382 30.3175 28.3382C30.3367 28.3382 30.3521 28.3305 30.356 28.3113C30.4329 28.1035 30.533 27.9034 30.6561 27.7148C30.6715 27.6917 30.6946 27.6802 30.7254 27.684C30.7523 27.6879 30.7754 27.7033 30.7831 27.7302L30.887 28.0457C30.887 28.0457 31.6143 27.8341 32.4724 27.6263C32.4878 27.6225 32.5032 27.6302 32.507 27.6456C32.5147 27.6648 32.5108 27.6802 32.4916 27.6879C30.2675 28.7499 25.1843 31.5243 25.1843 33.9832V39.8822C25.4036 39.7975 25.6306 39.7514 25.8615 39.7437C25.8692 37.7042 25.9962 35.7225 26.0501 34.9529C26.0539 34.9337 26.0616 34.926 26.0808 34.926C26.1001 34.926 26.1078 34.9337 26.1078 34.9529C26.2963 37.0578 26.3848 39.001 26.4118 39.6936C27.2429 39.6321 28.3973 39.5897 29.621 39.559C29.6402 39.559 29.6518 39.5705 29.6518 39.5897C29.6556 39.609 29.6441 39.6205 29.6248 39.6205C26.9851 40.1285 24.38 40.7865 21.8134 41.5984C14.9024 35.9726 14.1713 22.0967 21.798 13.254C21.8634 13.1771 21.9327 13.1771 21.9981 13.2502C22.837 14.216 22.9178 17.8178 21.875 19.5725C21.8596 19.5994 21.8634 19.6225 21.8827 19.6417C21.9019 19.6648 21.925 19.6686 21.9519 19.6571C22.7793 19.2338 23.7566 17.6408 23.9106 16.571C23.9144 16.5441 23.9298 16.5287 23.9567 16.5248C23.9837 16.521 24.0029 16.5325 24.0145 16.5556C24.4108 17.5407 24.3223 19.3262 24.1261 19.938C24.1107 19.9919 24.1299 20.0111 24.1838 19.9996C24.3685 19.938 24.5301 19.838 24.6686 19.6994C24.8572 20.2382 24.6609 21.7081 24.3954 22.4354C24.3877 22.4546 24.3916 22.47 24.407 22.4854C24.4223 22.5008 24.4416 22.5046 24.4608 22.4969C25.4267 22.0967 26.0924 21.4003 26.4541 20.4152C26.4579 20.3959 26.4733 20.3844 26.4964 20.3805C26.5157 20.3767 26.5349 20.3844 26.5503 20.3998C26.6388 20.5152 26.7119 20.6383 26.7619 20.7769C27.1775 19.888 27.293 16.317 25.3151 14.6739C25.292 14.6547 25.2843 14.6316 25.2958 14.6047C25.3035 14.5777 25.3266 14.5662 25.3536 14.5662C25.7807 14.6201 26.1809 14.7509 26.5541 14.9625C26.5811 14.9741 26.6042 14.9702 26.6234 14.951C26.6426 14.9279 26.6465 14.9048 26.6311 14.8817C26.2078 14.116 24.6301 12.9808 23.3295 12.6307C23.2795 12.6153 23.2526 12.5806 23.2526 12.5268C23.2564 12.4729 23.2795 12.4421 23.3334 12.4267C24.5917 12.1112 26.6003 12.5345 27.6739 13.5195C27.6932 13.5388 27.7124 13.5388 27.7355 13.5272C27.7547 13.5118 27.7624 13.4926 27.7547 13.4657C27.5392 12.8538 26.9159 11.8726 26.2809 11.4993C26.2578 11.4878 26.2463 11.4686 26.254 11.4416C26.2578 11.4185 26.2732 11.4031 26.3002 11.3993C28.0241 11.2839 30.3521 11.4686 31.5642 14.4623C31.5719 14.4854 31.5873 14.4969 31.6104 14.4969C31.6335 14.5008 31.6489 14.4931 31.6604 14.4738C31.8451 14.1314 31.926 13.7697 31.899 13.381C31.8952 13.3618 31.9029 13.3464 31.9183 13.331C31.9375 13.3194 31.9529 13.3194 31.9721 13.3271C33.1073 13.812 35.0428 13.6504 35.7586 14.52C35.774 14.5431 35.797 14.5508 35.824 14.5393C35.8509 14.5277 35.8625 14.5085 35.8586 14.4815C35.5277 12.2536 32.026 8.38246 27.9471 8.8904C27.9202 8.89425 27.8971 8.88655 27.8856 8.85962C27.874 8.83268 27.8817 8.80959 27.9009 8.7942C28.9553 7.96688 30.1328 7.40892 31.4411 7.12032C31.468 7.11262 31.4834 7.09723 31.4834 7.06645C31.4834 7.03566 31.4719 7.01642 31.4411 7.00873C29.6556 6.57775 25.9769 8.01305 23.2603 10.6605C23.2218 10.6951 23.1833 10.699 23.141 10.6682C23.0986 10.6335 23.0909 10.5951 23.1179 10.5489C25.0842 7.13186 28.1049 4.77689 30.4252 4.13427C30.456 4.12657 30.4714 4.10733 30.4791 4.07655C30.4868 4.04576 30.4753 4.01883 30.4522 3.99959C30.279 3.86876 30.0866 3.77256 29.875 3.71099C29.848 3.69944 29.8326 3.68405 29.8288 3.65327C29.8249 3.62633 29.8326 3.60324 29.8557 3.58785C30.9986 2.75284 31.6951 0.74418 32.3916 0.16698C32.4185 0.143891 32.4262 0.116956 32.4146 0.0861719C32.407 0.0515402 32.3839 0.0361479 32.3492 0.0361479C29.4979 0.0169082 26.4733 1.96784 24.7879 5.57342C24.7687 5.6119 24.7379 5.62729 24.6956 5.6119C24.6532 5.60036 24.634 5.56957 24.6417 5.5234C24.8148 4.6422 25.0842 3.7918 25.4498 2.97217C25.4652 2.93369 25.4575 2.90291 25.4228 2.87982C25.3882 2.85673 25.3574 2.86058 25.3266 2.88752C23.8567 4.29204 22.2713 7.66289 21.9558 10.1756C21.9519 10.2257 21.925 10.2526 21.875 10.2564C21.8249 10.2603 21.7942 10.2372 21.7826 10.1872C21.494 9.19054 21.6479 7.99381 21.7018 7.65134C21.7057 7.6321 21.698 7.62056 21.6826 7.60901C21.6633 7.60132 21.6479 7.60132 21.6325 7.61286C21.4209 7.79757 21.2593 8.02075 21.1515 8.27857C21.1439 8.29781 21.1285 8.30165 21.1092 8.30165C21.0938 8.29781 21.0823 8.28626 21.0784 8.27087C20.836 6.34687 21.0515 3.23384 21.1092 2.46039C21.1131 2.44115 21.1015 2.4296 21.0823 2.42191C21.063 2.41806 21.0477 2.42191 21.04 2.44115C20.736 3.05298 20.2627 4.47674 20.2203 5.38102C20.2203 5.40026 20.2088 5.41181 20.1895 5.41565C20.1703 5.4195 20.1588 5.41181 20.1511 5.39257C19.2429 3.1184 17.0342 0.755724 15.8529 0.00536392C15.8413 -0.00233257 15.8259 -0.00233233 15.8144 0.00921192C15.8028 0.0169084 15.7951 0.0284509 15.799 0.0438439C16.0799 1.07511 15.5796 4.48828 16.6494 6.08136C17.215 6.93946 17.85 7.74369 18.5503 8.49021C18.5657 8.5056 18.5657 8.52099 18.558 8.54023C18.5465 8.55562 18.5311 8.56332 18.5118 8.55562C17.8654 8.39401 16.9187 8.72494 16.5224 9.02893C16.5109 9.04047 16.507 9.05202 16.5109 9.06741C16.5147 9.0828 16.5263 9.0905 16.5416 9.0905C17.7769 9.15591 19.3584 9.96014 20.1241 10.926C20.1549 10.9606 20.1549 10.9953 20.1318 11.0337C20.1087 11.0722 20.078 11.0876 20.0318 11.0761C17.6152 10.5912 12.8168 10.9414 10.4079 13.8736C10.3964 13.889 10.3964 13.9043 10.4041 13.9159C10.4156 13.9313 10.4272 13.939 10.4464 13.9351C11.3353 13.7312 13.3632 14.5931 14.6407 14.0236C15.8529 13.4811 16.7148 13.127 17.4344 12.9808C17.4613 12.977 17.4806 12.9847 17.4921 13.0116C17.5036 13.0347 17.4998 13.0539 17.4806 13.0732C16.8495 13.6196 16.4339 14.547 16.2069 15.382C16.1992 15.4128 16.2069 15.432 16.2338 15.4474C16.2607 15.4589 16.2838 15.4551 16.2992 15.432C17.419 14.1237 18.7966 13.2079 20.4358 12.6922C20.4974 12.673 20.5436 12.6922 20.5743 12.7461C20.609 12.8 20.6051 12.85 20.5628 12.8962C14.7177 19.1338 12.9861 32.925 17.9423 42.3603C18.3541 42.3565 18.7619 42.3988 19.166 42.4911C17.9846 42.9221 16.8341 43.38 15.7066 43.8687C10.8581 40.798 7.6643 35.1569 7.53347 29.7966C7.53347 29.7504 7.55271 29.7119 7.59504 29.6888C7.63352 29.6658 7.67585 29.6658 7.71818 29.6888C8.8264 30.293 9.9808 31.7937 10.4195 32.7634C10.431 32.7865 10.4464 32.7942 10.4733 32.7865C10.4964 32.7826 10.508 32.7672 10.508 32.7403C10.4618 32.14 10.304 31.5705 10.0347 31.0356C10.027 31.0126 10.0308 30.9972 10.0462 30.9818C10.0616 30.9664 10.077 30.9664 10.0962 30.9779C11.0467 31.5282 12.2973 31.8668 13.7057 31.9476C13.3632 30.2353 11.8009 29.381 11.1698 29.1309C11.1506 29.1193 11.139 29.1039 11.139 29.0809C11.139 29.0578 11.1506 29.0424 11.1737 29.0347C11.3584 28.9731 11.5508 28.9308 11.7432 28.9039C11.7701 28.9 11.7817 28.8885 11.7855 28.8615C11.7894 28.8384 11.7817 28.8192 11.7586 28.8115C10.9005 28.4652 8.90721 28.2689 8.03756 28.3036C7.99523 28.3074 7.9606 28.2882 7.93751 28.2497C7.91442 28.2112 7.91058 28.1727 7.93366 28.1304C8.56089 26.9183 10.0154 25.6369 10.8774 25.229C10.8928 25.2213 10.8966 25.2098 10.8928 25.1905C10.8889 25.1751 10.8774 25.1674 10.862 25.1674C9.91154 25.1944 8.56474 26.0563 7.91827 26.7066C7.8721 26.7528 7.81822 26.7605 7.7605 26.7297C7.70278 26.6951 7.68354 26.6489 7.69894 26.5835C7.87594 25.7408 8.21842 24.9712 8.7302 24.2786C9.23814 23.5821 9.86921 23.0241 10.6234 22.6047C10.6465 22.5931 10.658 22.57 10.658 22.5431C10.6542 22.5123 10.6427 22.4931 10.6157 22.4854C10.3425 22.3776 10.0808 22.2507 9.82688 22.1083C10.381 21.2348 10.1463 19.9649 10.8504 19.153C10.8735 19.1261 10.8774 19.0953 10.862 19.0607C10.8428 19.026 10.8158 19.0145 10.7773 19.0183C9.05728 19.3339 6.83314 21.3541 6.79081 25.5022C6.79081 25.5676 6.75618 25.61 6.69076 25.6254C6.62534 25.6407 6.57532 25.6177 6.54838 25.5561C5.94425 24.2093 5.82881 21.6119 5.89807 20.5845C5.90192 20.5652 5.89422 20.5537 5.87498 20.5498C5.85959 20.5498 5.84805 20.5537 5.84035 20.5691C5.40168 21.8004 5.10538 24.8827 5.88653 26.9029C5.91346 26.9683 5.89807 27.0183 5.84035 27.0607C5.78648 27.0991 5.73261 27.0991 5.67874 27.053C4.85911 26.3603 4.53588 24.9058 4.48201 24.09C4.47816 24.0746 4.47046 24.0631 4.45122 24.0631C4.43583 24.0592 4.42429 24.0669 4.41659 24.0823C4.31654 24.3478 4.23189 24.6133 4.15878 24.8865C4.15108 24.9058 4.14338 24.9135 4.12414 24.9173C4.10875 24.9212 4.09721 24.9135 4.08566 24.8981C3.31991 23.6706 2.34252 22.243 2.29634 20.9616C2.2925 20.9423 2.2848 20.9308 2.26941 20.9269C2.25401 20.9193 2.24247 20.9231 2.23093 20.9385C1.24199 22.1852 1.21121 24.7211 2.40409 26.2795C3.29682 27.4416 4.6898 27.9649 5.3709 28.165C5.43246 28.1804 5.46325 28.2228 5.4671 28.2843C5.4671 28.3459 5.44016 28.3882 5.38244 28.4113C3.95483 28.9577 2.09625 29.8928 1.34204 31.532C1.33819 31.5513 1.34204 31.5667 1.35743 31.5744C1.37282 31.5859 1.38822 31.5859 1.39976 31.5744C1.90385 31.1549 2.46565 30.8394 3.08134 30.6201C3.09673 30.6162 3.10827 30.6162 3.11982 30.6316C3.12751 30.6432 3.13136 30.6547 3.12366 30.6701C2.37715 31.9553 1.6114 35.0376 4.57051 36.7153C4.58975 36.7268 4.60514 36.7268 4.62054 36.7114C4.63978 36.6999 4.64362 36.6845 4.63978 36.6614C4.32424 35.4839 5.12462 34.3603 5.09384 33.4253C5.0669 32.5133 4.68595 32.0323 4.81678 31.305C4.81678 31.2896 4.82833 31.2781 4.84757 31.2781C4.86296 31.2742 4.87835 31.2819 4.8822 31.2973C4.98994 31.532 5.12462 31.7437 5.29009 31.9399C5.29778 31.9515 5.31318 31.9553 5.32472 31.9476C5.34011 31.9438 5.34781 31.9322 5.34781 31.9168C5.31702 30.8086 5.64795 29.7966 6.40601 29.1886C6.44834 29.154 6.49836 29.1463 6.54838 29.1732C6.59841 29.1963 6.6215 29.2386 6.62534 29.2925C6.65228 34.4065 8.96493 40.494 13.2862 44.5768C13.5441 44.5652 13.7942 44.5806 14.0481 44.6191C8.5301 47.2242 3.76243 50.5373 0.0452623 54.3738C-0.012458 54.4315 -0.016306 54.4931 0.0414143 54.5546C0.0952868 54.6162 0.156855 54.62 0.22227 54.57C9.76531 47.1626 24.1376 42.2718 40.38 41.71C40.4339 41.71 40.4608 41.7331 40.4724 41.7831C40.4801 41.837 40.457 41.8678 40.4069 41.8832C36.4281 43.0106 31.8682 44.673 29.3901 46.0929C29.3286 46.1314 29.3055 46.1852 29.3247 46.2545C29.3478 46.3276 29.394 46.3622 29.4671 46.3584C34.0847 46.166 43.2929 46.9279 46.1905 47.1857C46.2559 47.1896 46.2867 47.2242 46.2905 47.2896C46.2905 47.3512 46.2598 47.3896 46.1982 47.3973C39.2179 48.5171 29.3286 51.8841 25.3959 54.0121C25.292 54.0698 25.2535 54.1544 25.2843 54.2699C25.3112 54.3853 25.3843 54.443 25.5036 54.443H63.5219C63.6527 54.443 63.7258 54.3776 63.7489 54.2506C63.7682 54.1236 63.7181 54.039 63.595 53.9967C58.4194 52.2112 48.9187 51.0799 46.1597 50.7797C46.0635 50.7682 46.0096 50.7143 45.9981 50.622C45.9904 50.5258 46.0289 50.4604 46.1174 50.4296C50.354 48.9365 55.5796 48.1439 57.4344 47.8937C57.519 47.8822 57.569 47.8322 57.5729 47.7475C57.5806 47.6629 57.5459 47.6051 57.4613 47.5782C52.8321 46.1237 43.039 44.9654 40.2492 44.6537C40.1799 44.646 40.1453 44.6075 40.1414 44.5383C40.1414 44.469 40.1722 44.4267 40.2376 44.4113C45.8711 43.2646 53.1361 42.899 58.354 42.9106C69.7133 44.8692 79.6104 49.0097 86.7792 54.57C86.8446 54.62 86.9023 54.6162 86.9601 54.5546C87.0139 54.4931 87.0139 54.4353 86.9562 54.3738ZM51.0813 38.0082C50.8004 37.6196 50.4387 37.2771 50.1963 37.1809C50.1847 37.1732 50.177 37.1771 50.1655 37.1847C50.1578 37.1963 50.1578 37.2078 50.1616 37.2194C50.3386 37.5465 50.4772 37.8928 50.5734 38.2545C50.5772 38.2622 50.5734 38.2699 50.5657 38.2737C50.558 38.2814 50.5503 38.2814 50.5426 38.2776C49.8422 37.8889 48.8879 37.7619 48.5416 37.7273C48.5262 37.7235 48.5185 37.7312 48.5185 37.7427C48.5147 37.7543 48.5185 37.7658 48.5301 37.7696C49.0573 38.0044 49.5652 38.2737 50.0539 38.5816C50.0616 38.5893 50.0654 38.597 50.0616 38.6085C50.0577 38.6201 50.05 38.6239 50.0385 38.6239C49.1958 38.5508 48.3492 38.4892 47.495 38.443L47.4719 38.2391C47.4603 38.1775 47.4257 38.1468 47.3641 38.1468H46.9485C46.9139 38.1468 46.8908 38.1583 46.8677 38.1814L46.6715 38.4007C46.4522 38.393 46.2328 38.3853 46.0096 38.3776L45.8249 37.9851C45.7941 37.9197 45.748 37.8812 45.6787 37.862L45.2131 37.7466C45.1284 37.7273 45.0553 37.7504 44.9938 37.8158L44.5243 38.3391C44.1857 38.3353 43.8432 38.3315 43.5007 38.3315C42.4541 38.3315 41.4151 38.3545 40.3839 38.4007L39.9991 37.9351C39.9375 37.8658 39.8644 37.8351 39.772 37.8466L36.8206 38.216C36.759 38.2237 36.7052 38.2545 36.6628 38.3007L36.3242 38.6816L36.2896 38.6701C36.305 38.2199 36.3858 37.7773 36.5282 37.3502C36.532 37.3348 36.5282 37.3194 36.5166 37.3079C36.5012 37.2963 36.4858 37.2963 36.4704 37.304C36.2703 37.4349 36.0933 37.5926 35.9394 37.7773C35.9279 37.7927 35.9125 37.7966 35.8971 37.7889C35.8817 37.785 35.8702 37.7735 35.8702 37.7543V27.8072C35.8702 27.7764 35.8855 27.7571 35.9125 27.7495C35.9394 27.7379 35.9625 27.7456 35.9817 27.7687C36.1472 27.9726 36.3435 28.1343 36.5705 28.2612C36.5897 28.2689 36.609 28.2689 36.6244 28.2574C36.6436 28.2458 36.6513 28.2266 36.6474 28.2074C36.5205 27.3416 36.8245 25.964 37.0476 25.4022C37.0553 25.3791 37.0707 25.3714 37.0938 25.3752C37.1169 25.3791 37.1323 25.3906 37.1323 25.4137C37.2054 26.0448 37.4748 27.2492 37.4671 27.7956C37.4632 27.8264 37.4786 27.8495 37.5056 27.8649C37.5325 27.8803 37.5594 27.8803 37.5864 27.8649C37.7287 27.761 37.8557 27.6379 37.9673 27.4955C37.9981 27.4609 38.0327 27.4455 38.0789 27.4532C38.1251 27.4609 38.1559 27.4839 38.1751 27.5263C38.4368 28.1304 38.7908 28.673 39.2449 29.1501C39.2602 29.1694 39.2795 29.1732 39.3026 29.1655C39.3257 29.154 39.3372 29.1386 39.3372 29.1116C39.2564 27.4031 39.495 25.2021 39.9029 24.1862C39.9106 24.1631 39.9259 24.1554 39.949 24.1593C39.9721 24.167 39.9837 24.1785 39.9837 24.2054C39.9029 25.1251 40.1491 26.9952 40.5185 27.7571C40.5301 27.7841 40.5532 27.7995 40.5801 27.7956C40.6109 27.7956 40.634 27.7802 40.6417 27.7533C40.7648 27.4685 40.911 27.1953 41.0727 26.9337C41.088 26.9067 41.1111 26.899 41.1419 26.9029C41.1727 26.9067 41.1881 26.9221 41.1958 26.9529L41.2881 27.3146C41.2997 27.3723 41.3382 27.3993 41.3959 27.3993H43.4969C43.5739 27.3993 43.6123 27.4378 43.6085 27.5186C43.6085 27.6917 43.5969 27.8687 43.5739 28.0457C43.8471 27.8457 44.1511 27.0914 44.178 26.4642C44.178 26.4488 44.1818 26.445 44.1934 26.4411C44.2049 26.4373 44.2126 26.4411 44.2203 26.4527C44.582 27.0337 44.8283 27.6609 44.963 28.3305C44.9668 28.342 44.9707 28.3497 44.9822 28.3536C44.9938 28.3574 45.0015 28.3536 45.0092 28.3459C45.1477 28.1727 45.2439 27.9803 45.2978 27.761C45.3055 27.7225 45.3324 27.7033 45.3709 27.7033C45.9096 27.711 46.7792 27.8187 46.9986 27.8495C47.0332 27.8533 47.0563 27.8687 47.0755 27.8995C47.5604 28.7461 47.7489 29.3618 47.7643 29.9043C47.7643 29.912 47.7682 29.9197 47.7759 29.9197C47.7836 29.9236 47.7913 29.9197 47.7951 29.912C47.9144 29.6388 48.0221 29.3656 48.1145 29.0809C48.1183 29.0693 48.1299 29.0616 48.1414 29.0616C48.1568 29.0655 48.1645 29.0732 48.1684 29.0847C48.3492 29.6658 48.4069 30.2545 48.3415 30.8586C48.3415 30.8702 48.3454 30.8779 48.3569 30.8856C48.3685 30.8894 48.38 30.8856 48.3877 30.874C48.7725 30.1968 49.1381 27.634 48.9495 26.1679C48.9457 26.1564 48.9534 26.1487 48.9611 26.1448C48.9726 26.141 48.9803 26.141 48.988 26.1525C49.3228 26.6989 49.5075 27.2915 49.5383 27.9303C49.9423 27.9611 50.4464 27.357 50.6157 27.1376C50.6234 27.1261 50.6388 27.1222 50.6542 27.1261C50.6657 27.1338 50.6734 27.1453 50.6734 27.1607C50.6734 27.634 50.6311 28.1035 50.5426 28.5691C50.5387 28.5806 50.5426 28.5883 50.5541 28.596C50.5657 28.5999 50.5734 28.5999 50.5849 28.5922C50.7889 28.3574 50.9582 28.0958 51.0928 27.8149C51.1005 27.7995 51.1159 27.7918 51.1352 27.7956C51.1544 27.8033 51.1621 27.8149 51.166 27.8341V37.9774C51.166 38.0005 51.1583 38.0159 51.1352 38.0275C51.1121 38.0352 51.0928 38.0275 51.0813 38.0082Z" fill="#D8c473"/>
</svg>
